<svg xmlns="http://www.w3.org/2000/svg" xmlns:xlink="http://www.w3.org/1999/xlink" viewBox="0 0 135.53 135.53"><defs><style>.cls-1{fill:#1c1c1c;opacity:0.8;}.cls-2{fill:url(#Безымянный_градиент_7);}</style><linearGradient id="Безымянный_градиент_7" x1="11.86" y1="67.76" x2="123.67" y2="67.76" gradientUnits="userSpaceOnUse"><stop offset="0" stop-color="#febc37"/><stop offset="0.19" stop-color="#fba538"/><stop offset="0.54" stop-color="#f58238"/><stop offset="0.82" stop-color="#f26c39"/><stop offset="1" stop-color="#f16439"/></linearGradient></defs><title>Ресурс 5icon</title><g id="Слой_2" data-name="Слой 2"><g id="Слой_2-2" data-name="Слой 2"><rect class="cls-1" width="135.53" height="135.53" rx="10"/><path class="cls-2" d="M123.67,98.65c-.62-25.12-10.92-41.18-24.92-52.09,4.53-12.77,2.88-22,1.44-34.59C92,14.64,86.4,18.35,73.63,28.85a59.88,59.88,0,0,0-8.85-10.5s-3.91,3.71-8.85,20.59c-13.71,5.18-11.6,13.25-19.06,20s-25,5.94-25,5.94C24.31,99.2,54.69,87.32,65.19,94.94s4.94,28.62,4.94,28.62c9.89-7,12.56-11.12,11.94-23.47,6.18.82,8.24,1.44,15.65,6.18C91.55,88.15,79.81,84,50,86.5c-22.25,1-32.12-15.44-32.12-15.44s16.48,14.21,43.45,3.29c25.53-10.09,36.08-5.56,39.12-3.91C92,70.65,86,75.59,82.07,77.85,91.13,77.24,110.9,79.29,123.67,98.65ZM49.79,60.05s-.55-3.79,1.46-5.48,9.34.15,13.13.46C59.51,58.5,57.89,60.82,49.79,60.05ZM93.57,43.29s-1.72-.92-4.65-2.25a41.4,41.4,0,0,0-7.68-2.2S84.51,33.3,96.59,21.7C95.5,38.74,93.57,43.29,93.57,43.29Z"/></g></g></svg>